<?xml version="1.0" standalone="no"?>
<!DOCTYPE svg PUBLIC "-//W3C//DTD SVG 20010904//EN"
 "http://www.w3.org/TR/2001/REC-SVG-20010904/DTD/svg10.dtd">
<svg version="1.0" xmlns="http://www.w3.org/2000/svg"
 width="260.000000pt" height="101.000000pt" viewBox="0 0 260.000000 101.000000"
 preserveAspectRatio="xMidYMid meet">

<g transform="translate(0.000000,101.000000) scale(0.100000,-0.100000)"
fill="#000000" stroke="none">
<path d="M0 505 l0 -505 1300 0 1300 0 0 505 0 505 -1300 0 -1300 0 0 -505z
m549 380 c70 -32 138 -99 178 -175 25 -50 28 -65 28 -155 0 -87 -3 -107 -26
-155 -34 -72 -71 -115 -134 -156 -138 -88 -318 -73 -438 36 -147 134 -164 344
-40 507 34 45 121 100 185 118 74 21 173 13 247 -20z m547 -20 c28 -11 39 -12
54 -3 11 7 21 10 24 8 2 -3 6 -43 7 -90 3 -69 1 -85 -11 -88 -10 -2 -21 13
-32 45 -24 68 -66 105 -118 107 -34 1 -46 -4 -66 -27 -27 -31 -31 -74 -10
-102 7 -11 60 -42 117 -70 114 -55 139 -80 146 -146 12 -124 -127 -203 -268
-154 -28 10 -45 12 -47 5 -2 -5 -12 -10 -23 -10 -16 0 -19 7 -19 44 0 24 -3
64 -6 90 -6 42 -5 46 14 46 15 0 24 -10 32 -35 49 -150 240 -170 240 -25 0 44
-41 84 -112 110 -112 40 -158 90 -158 171 0 105 125 171 236 124z m555 -14
c36 -18 59 -62 59 -115 0 -39 -5 -51 -35 -81 -20 -19 -47 -38 -60 -41 -14 -3
-25 -9 -25 -13 1 -3 33 -49 73 -101 53 -70 83 -100 114 -115 65 -31 56 -45
-29 -45 l-73 0 -28 45 c-16 25 -54 79 -84 120 -42 58 -60 75 -79 75 -22 0 -24
-4 -26 -57 -5 -139 0 -153 50 -153 13 0 22 -6 22 -15 0 -12 -19 -15 -115 -15
-87 0 -115 3 -115 13 0 7 15 17 33 22 l32 10 3 214 c3 227 0 241 -44 241 -14
0 -24 6 -24 15 0 12 23 15 123 17 132 3 187 -2 228 -21z m457 -169 c41 -106
77 -190 80 -187 3 3 11 20 18 38 6 17 26 70 43 117 18 47 44 118 58 158 l25
72 84 0 c64 0 84 -3 84 -14 0 -7 -15 -17 -32 -22 l-33 -10 -3 -203 c-3 -220 2
-246 49 -253 13 -2 24 -9 27 -15 3 -10 -25 -13 -118 -13 -93 0 -121 3 -118 13
3 6 16 13 31 15 45 6 48 17 45 228 l-3 198 -39 -99 c-101 -262 -140 -355 -147
-355 -4 0 -23 42 -43 93 -19 50 -58 153 -86 227 -29 74 -54 137 -57 140 -3 3
-3 -80 -1 -185 4 -209 9 -230 61 -243 17 -5 32 -15 32 -23 0 -11 -22 -15 -107
-17 -87 -2 -108 0 -108 11 0 8 17 21 39 29 48 19 50 28 48 228 -1 191 -6 217
-50 228 -18 5 -33 16 -35 26 -3 15 6 16 89 14 l93 -3 74 -193z m-1134 -417
c-4 -8 -1 -15 5 -15 6 0 11 5 11 10 0 6 5 10 11 10 6 0 7 -6 2 -12 -4 -7 -7
-22 -8 -33 0 -20 -35 -36 -35 -16 0 6 8 8 18 4 15 -6 15 -4 -2 15 -16 18 -17
52 -2 52 3 0 3 -7 0 -15z m404 3 c16 -16 15 -43 -3 -58 -30 -25 -61 30 -33 58
15 15 21 15 36 0z m146 -1 c3 3 6 -8 6 -26 0 -27 3 -32 18 -26 13 5 14 4 5 -6
-10 -9 -15 -10 -27 0 -10 8 -16 9 -21 1 -3 -5 -15 -10 -26 -10 -15 0 -18 6
-16 28 5 42 15 54 36 42 10 -5 21 -6 25 -3z m34 -12 c-3 -3 -9 2 -12 12 -6 14
-5 15 5 6 7 -7 10 -15 7 -18z m212 3 c0 -7 -5 -6 -14 1 -10 9 -15 8 -20 -4 -9
-24 4 -47 23 -40 12 5 13 3 4 -6 -6 -6 -19 -9 -27 -6 -18 7 -21 48 -5 64 13
13 39 6 39 -9z m306 4 c1 -7 0 -8 -3 -2 -10 21 -23 9 -23 -21 0 -24 4 -30 16
-25 8 3 12 2 9 -4 -12 -19 -35 -10 -41 18 -4 15 -12 31 -18 35 -7 6 -4 7 6 3
10 -3 20 -1 24 5 7 13 27 7 30 -9z m194 -22 c0 -16 -4 -31 -9 -34 -5 -4 -7 3
-4 14 3 11 2 28 -1 37 -11 26 -27 -5 -19 -36 4 -17 2 -22 -6 -17 -14 9 -14 49
0 63 18 18 39 3 39 -27z m83 5 c-4 -23 -2 -35 6 -35 6 0 11 14 11 31 0 27 2
30 15 19 10 -9 15 -9 15 -1 0 6 4 11 8 11 5 0 7 -13 4 -30 -3 -18 0 -30 7 -30
6 0 11 7 11 15 0 8 5 15 10 15 16 0 12 -30 -5 -36 -8 -4 -22 -1 -31 6 -11 10
-18 10 -26 2 -7 -7 -18 -12 -25 -12 -18 0 -28 47 -13 65 18 22 19 19 13 -20z
m-1471 -10 c2 -21 0 -35 -7 -35 -7 0 -9 14 -7 35 2 19 5 35 7 35 2 0 5 -16 7
-35z m49 13 c10 -13 18 -30 19 -38 0 -15 -49 37 -50 53 0 13 12 7 31 -15z
m151 -13 c3 -24 0 -35 -9 -35 -7 0 -13 11 -13 24 0 14 -4 28 -10 31 -6 4 -10
-7 -10 -24 0 -17 -4 -31 -10 -31 -5 0 -10 16 -10 35 0 32 3 35 29 35 25 0 29
-4 33 -35z m49 26 c-8 -5 -12 -19 -9 -35 3 -16 1 -26 -6 -26 -8 0 -10 13 -8
35 3 24 9 35 21 35 13 0 13 -2 2 -9z m32 -10 c-2 -10 3 -26 13 -36 17 -16 17
-17 -2 -13 -13 2 -20 13 -22 36 -2 17 1 32 6 32 6 0 8 -8 5 -19z m117 3 c0 -8
5 -12 10 -9 6 3 10 1 10 -4 0 -6 -4 -11 -10 -11 -5 0 -10 -5 -10 -11 0 -6 7
-9 15 -5 8 3 15 1 15 -4 0 -6 -10 -10 -23 -10 -20 0 -23 4 -19 30 3 23 0 30
-12 30 -11 0 -16 -9 -16 -30 0 -16 -4 -30 -10 -30 -5 0 -10 14 -10 30 0 35
-17 40 -23 8 -4 -20 -4 -19 -6 5 -1 26 1 27 44 27 34 0 45 -4 45 -16z m140 4
c0 -9 4 -8 11 2 9 12 9 11 4 -5 -4 -11 -10 -28 -12 -37 -9 -31 -23 -20 -23 17
0 19 5 35 10 35 6 0 10 -6 10 -12z m170 -23 c0 -19 -4 -35 -10 -35 -5 0 -10
16 -10 35 0 19 5 35 10 35 6 0 10 -16 10 -35z m41 10 c5 4 9 1 9 -4 0 -6 -4
-11 -10 -11 -5 0 -10 -5 -10 -11 0 -6 7 -9 15 -5 8 3 15 1 15 -4 0 -6 -10 -10
-23 -10 -21 0 -23 4 -18 38 3 20 6 29 9 19 2 -9 8 -15 13 -12z m56 8 c6 -15 7
-15 14 3 5 14 8 8 8 -21 l0 -40 -19 23 -19 22 -4 -22 c-3 -15 -5 -9 -6 15 -1
38 14 50 26 20z m109 8 c-4 -5 0 -12 6 -15 10 -5 10 -7 1 -12 -18 -8 -16 -27
2 -20 8 3 15 1 15 -4 0 -6 -9 -10 -20 -10 -16 0 -20 7 -20 35 0 19 5 35 11 35
5 0 8 -4 5 -9z m90 -5 c17 -17 19 -30 3 -20 -8 4 -8 0 0 -15 10 -19 9 -21 -13
-21 -24 0 -43 25 -26 35 5 3 7 12 3 20 -7 19 14 19 33 1z m114 -2 c0 -8 5 -12
10 -9 6 3 10 1 10 -4 0 -6 -4 -11 -10 -11 -5 0 -10 -5 -10 -11 0 -6 7 -9 15
-5 8 3 15 1 15 -4 0 -6 -11 -10 -25 -10 -21 0 -25 5 -25 30 0 17 -4 30 -10 30
-5 0 -10 -13 -10 -30 0 -16 -4 -30 -10 -30 -5 0 -10 13 -10 29 0 16 -6 32 -12
34 -7 3 6 6 30 6 32 1 42 -3 42 -15z m110 -19 c0 -19 -4 -35 -10 -35 -5 0 -10
16 -10 35 0 19 5 35 10 35 6 0 10 -16 10 -35z m32 0 c2 -21 0 -35 -7 -35 -7 0
-9 14 -7 35 2 19 5 35 7 35 2 0 5 -16 7 -35z m52 10 c22 -34 20 -55 -3 -26
l-19 25 -5 -25 c-3 -17 -5 -13 -6 14 -1 43 10 47 33 12z m106 -6 c0 -24 4 -30
15 -25 8 3 15 1 15 -4 0 -6 -10 -10 -22 -10 -20 0 -23 5 -23 35 0 19 3 35 8
35 4 0 7 -14 7 -31z m184 9 c8 -33 7 -48 -4 -48 -5 0 -10 10 -10 23 0 13 -5
28 -12 35 -9 9 -8 12 4 12 9 0 18 -10 22 -22z m-1184 -113 c12 4 20 2 20 -5 0
-6 -5 -8 -12 -4 -8 5 -9 2 -5 -9 3 -10 2 -17 -3 -17 -6 0 -10 5 -10 11 0 8 -5
7 -15 -1 -22 -18 -28 -7 -20 32 7 31 8 32 16 10 7 -18 14 -22 29 -17z m531
-12 c-11 -21 -20 -35 -21 -31 0 12 33 78 38 74 2 -2 -6 -21 -17 -43z m182 35
c-8 -14 -9 -18 -13 -45 -1 -12 -3 -14 -7 -5 -4 10 -8 10 -19 1 -18 -15 -29 -6
-20 17 3 9 12 14 19 11 8 -3 19 4 25 14 7 10 15 19 18 19 3 0 2 -6 -3 -12z
m-1132 -35 c-4 -28 -6 -32 -9 -15 -3 22 3 52 11 52 1 0 1 -17 -2 -37z m26 5
c-3 -7 -5 -2 -5 12 0 14 2 19 5 13 2 -7 2 -19 0 -25z m463 -18 c5 0 11 11 14
25 6 23 6 23 4 -2 -4 -36 -33 -38 -34 -3 -1 22 0 22 3 3 2 -13 8 -23 13 -23z
m558 14 c-1 -9 -9 -19 -16 -20 -7 -1 -8 0 -2 3 6 3 7 11 0 22 -5 10 -6 21 -3
25 11 10 25 -10 21 -30z m133 -9 c5 4 9 16 9 28 0 16 3 18 9 8 6 -9 11 -10 15
-2 4 6 12 11 17 11 6 0 3 -7 -5 -16 -9 -8 -13 -20 -10 -26 4 -6 10 -5 15 3 7
11 9 10 9 -3 0 -21 -20 -24 -38 -6 -9 9 -12 9 -12 0 0 -7 -7 -12 -15 -12 -11
0 -15 10 -14 33 2 30 2 30 6 4 2 -15 9 -25 14 -22z m376 2 c-2 -6 -10 -12 -18
-15 -12 -3 -12 -2 1 7 8 5 11 13 7 17 -3 4 -13 1 -21 -5 -11 -9 -16 -9 -22 0
-4 8 -3 9 4 5 7 -4 12 -1 12 9 0 10 -5 13 -12 9 -7 -4 -8 -3 -4 4 9 14 59 -15
53 -31z m39 15 c1 -15 -1 -21 -3 -14 -3 6 -9 10 -14 6 -13 -8 -11 10 3 24 7 7
12 12 13 12 0 0 1 -12 1 -28z m21 -9 c-3 -10 -5 -4 -5 12 0 17 2 24 5 18 2 -7
2 -21 0 -30z m-1524 13 c15 2 27 -1 27 -7 0 -5 -5 -9 -11 -9 -5 0 -7 -4 -4
-10 3 -5 1 -10 -4 -10 -6 0 -11 7 -11 15 0 8 -5 15 -11 15 -6 0 -9 -7 -5 -15
9 -26 -8 -16 -21 11 -9 20 -9 23 0 16 7 -4 24 -7 40 -6z m167 -11 c0 -16 -6
-25 -15 -25 -28 0 -18 40 13 49 1 1 2 -10 2 -24z m73 14 c14 2 18 -3 15 -16
-2 -11 -14 -19 -31 -21 -23 -3 -27 0 -27 23 0 18 4 24 13 18 6 -4 20 -6 30 -4z
m338 -16 c-11 -5 -11 -7 0 -14 11 -7 11 -9 -2 -9 -9 0 -20 8 -24 18 -6 16 -7
16 -17 -2 -8 -15 -12 -16 -19 -5 -14 23 -10 30 16 25 13 -3 28 0 31 6 4 6 10
6 18 -2 8 -9 8 -14 -3 -17z m139 2 c0 -14 -4 -25 -10 -25 -5 0 -10 11 -10 25
0 14 5 25 10 25 6 0 10 -11 10 -25z m453 9 c-3 -9 0 -20 8 -25 11 -7 11 -9 -3
-9 -18 0 -25 30 -11 43 11 11 13 8 6 -9z m87 -15 c0 -19 -1 -19 -16 -5 -8 9
-12 20 -9 26 9 15 25 2 25 -21z m57 -6 c-3 -10 -5 -4 -5 12 0 17 2 24 5 18 2
-7 2 -21 0 -30z m70 0 c-3 -10 -5 -4 -5 12 0 17 2 24 5 18 2 -7 2 -21 0 -30z
m-1340 -5 c-3 -7 -5 -2 -5 12 0 14 2 19 5 13 2 -7 2 -19 0 -25z m20 0 c-3 -7
-5 -2 -5 12 0 14 2 19 5 13 2 -7 2 -19 0 -25z m20 0 c-3 -7 -5 -2 -5 12 0 14
2 19 5 13 2 -7 2 -19 0 -25z m43 21 c0 -5 -5 -7 -12 -3 -8 5 -9 2 -5 -9 3 -10
2 -17 -3 -17 -11 0 -13 23 -3 33 10 10 23 8 23 -4z m347 -6 c14 -17 14 -17 9
0 -3 9 -1 17 4 17 6 0 10 -9 10 -20 0 -26 -39 -28 -41 -2 -1 16 -2 16 -6 0 -6
-24 -23 -23 -23 2 0 25 28 26 47 3z m144 8 c-7 -5 -10 -14 -7 -20 4 -6 2 -11
-3 -11 -6 0 -11 9 -11 20 0 12 7 20 18 20 13 0 14 -2 3 -9z m69 -10 c0 -14 -8
-18 -32 -18 -18 -1 -28 1 -21 4 7 2 10 10 7 16 -3 8 6 13 21 15 18 1 25 -3 25
-17z m64 2 c4 -10 0 -23 -11 -32 -10 -9 -12 -10 -6 -2 8 10 9 20 2 33 -6 10
-6 18 0 18 5 0 12 -8 15 -17z m67 2 c8 19 9 19 6 1 -3 -29 -27 -33 -26 -4 1
20 2 21 7 3 l5 -20 8 20z m79 -11 c0 -8 -8 -14 -17 -13 -10 0 -13 3 -6 5 7 3
9 12 6 21 -4 11 -2 14 5 9 7 -4 12 -14 12 -22z m391 17 c-7 -5 -10 -14 -7 -20
4 -6 2 -11 -3 -11 -12 0 -15 23 -4 33 3 4 11 7 17 7 6 0 5 -4 -3 -9z"/>
<path d="M305 761 c-49 -23 -99 -74 -119 -123 -34 -79 -7 -216 46 -238 13 -5
17 -9 9 -9 -8 -1 -12 -4 -8 -7 3 -4 35 -1 71 6 61 13 65 15 70 45 6 28 0 65
-9 65 -2 0 -16 -5 -32 -12 -38 -15 -105 -17 -120 -2 -7 7 -13 22 -13 33 0 12
-4 21 -10 21 -5 0 -10 6 -10 14 0 8 15 17 35 20 20 4 35 13 35 21 0 8 8 18 18
24 16 9 16 10 0 16 -24 10 -11 32 22 39 20 4 31 13 36 30 6 26 34 39 55 25 7
-4 19 -3 25 2 8 6 17 5 27 -5 8 -8 18 -12 22 -8 5 4 5 -3 2 -16 -4 -18 -2 -22
9 -18 18 7 44 -16 44 -38 0 -9 5 -16 10 -16 6 0 10 -8 11 -17 0 -14 3 -13 11
5 13 26 21 27 47 6 14 -13 17 -22 11 -38 -19 -47 -23 -61 -21 -69 1 -5 -3 -6
-8 -3 -5 4 -13 1 -16 -5 -4 -5 -13 -8 -21 -5 -7 3 -16 1 -19 -4 -4 -6 -23 -10
-43 -10 -29 0 -39 -5 -47 -23 -16 -35 -7 -56 35 -77 42 -21 116 -28 105 -9 -4
5 0 18 9 27 49 55 61 173 25 244 -56 109 -188 158 -294 109z"/>
<path d="M559 763 c-13 -16 -12 -17 4 -4 9 7 17 15 17 17 0 8 -8 3 -21 -13z"/>
<path d="M280 579 c0 -5 5 -7 10 -4 6 3 10 8 10 11 0 2 -4 4 -10 4 -5 0 -10
-5 -10 -11z"/>
<path d="M658 543 c7 -3 16 -2 19 1 4 3 -2 6 -13 5 -11 0 -14 -3 -6 -6z"/>
<path d="M118 533 c7 -3 16 -2 19 1 4 3 -2 6 -13 5 -11 0 -14 -3 -6 -6z"/>
<path d="M137 439 c7 -7 15 -10 18 -7 3 3 -2 9 -12 12 -14 6 -15 5 -6 -5z"/>
<path d="M1450 730 l0 -110 45 0 c94 0 151 83 113 165 -16 35 -57 55 -113 55
l-45 0 0 -110z"/>
<path d="M1357 263 c-11 -10 -8 -53 3 -53 6 0 10 14 10 30 0 31 -2 35 -13 23z"/>
<path d="M1480 261 c0 -5 7 -12 16 -15 14 -5 15 -4 4 9 -14 17 -20 19 -20 6z"/>
<path d="M1470 220 c0 -5 5 -10 10 -10 6 0 10 5 10 10 0 6 -4 10 -10 10 -5 0
-10 -4 -10 -10z"/>
<path d="M1260 119 c0 -5 5 -7 10 -4 6 3 10 8 10 11 0 2 -4 4 -10 4 -5 0 -10
-5 -10 -11z"/>
<path d="M1200 120 c0 -5 5 -10 10 -10 6 0 10 5 10 10 0 6 -4 10 -10 10 -5 0
-10 -4 -10 -10z"/>
<path d="M1635 120 c3 -5 8 -10 11 -10 2 0 4 5 4 10 0 6 -5 10 -11 10 -5 0 -7
-4 -4 -10z"/>
</g>
</svg>
